<?xml version="1.0" encoding="utf-8"?>
<!-- Generator: Adobe Illustrator 25.2.1, SVG Export Plug-In . SVG Version: 6.00 Build 0)  -->
<svg version="1.1" id="Layer_1" xmlns="http://www.w3.org/2000/svg" xmlns:xlink="http://www.w3.org/1999/xlink" x="0px" y="0px"
	 viewBox="0 0 285 284" style="enable-background:new 0 0 285 284;" xml:space="preserve">
<style type="text/css">
	.st0{fill:#FBBF3B;}
</style>
<path class="st0" d="M142.01,3.75c-76.21,0-137.99,61.78-137.99,138s61.78,138,137.99,138S280,217.97,280,141.75
	S218.22,3.75,142.01,3.75z M142.01,256.75c-63.51,0-114.99-51.49-114.99-115s51.48-115,114.99-115S257,78.24,257,141.75
	S205.52,256.75,142.01,256.75z"/>
<path class="st0" d="M183.41,167.8c0-18.81-11.23-29.78-33.17-38.14c-0.44-0.17-0.85-0.33-1.27-0.5V91.03
	c10.98,0.36,19.53,4.29,24.26,7.28l5.75-16.72c-6.85-4.06-17.66-7.62-30.01-7.82V61.25h-13v13.68c-19.98,4.14-31.7,18.73-31.7,35.92
	c0,14.76,10.17,27.04,31.7,35.15v42.68c-11.28-0.18-22.95-4.77-29.61-9.13l-5.75,17.5c8.84,5.2,21.58,8.59,35.36,8.62v16.58h13
	v-17.64C171.03,200.74,183.41,186.61,183.41,167.8z M126.21,108.24c0-6.3,3.42-11.89,9.76-14.9v29.87
	C129.36,119.29,126.21,114.95,126.21,108.24z M148.96,186.72v-35.11c8.68,4.79,12.25,10.18,12.25,18.28
	C161.21,177.3,157.24,183.65,148.96,186.72z"/>
</svg>
